<svg width="38" height="38" viewBox="0 0 38 38" fill="none" xmlns="http://www.w3.org/2000/svg">
<path d="M19 3.00195C10.168 3.00195 3 9.98132 3 18.5809C3 27.1805 10.168 34.1598 19 34.1598C27.832 34.1598 35 27.1805 35 18.5809C35 9.98132 27.832 3.00195 19 3.00195ZM19 7.67564C21.656 7.67564 23.8 9.76322 23.8 12.3493C23.8 14.9354 21.656 17.023 19 17.023C16.344 17.023 14.2 14.9354 14.2 12.3493C14.2 9.76322 16.344 7.67564 19 7.67564ZM19 29.7977C15 29.7977 11.464 27.8036 9.4 24.7813C9.448 21.6811 15.8 19.983 19 19.983C22.184 19.983 28.552 21.6811 28.6 24.7813C26.536 27.8036 23 29.7977 19 29.7977Z" fill="black"/>
</svg>
